<?xml version="1.0" encoding="UTF-8"?>
<svg xmlns="http://www.w3.org/2000/svg" xmlns:xlink="http://www.w3.org/1999/xlink" viewBox="0 0 24 24" width="24px" height="24px">
<g id="surface62673844">
<path style=" stroke:none;fill-rule:nonzero;fill:rgb(95.686275%,36.078432%,1.176471%);fill-opacity:1;" d="M 6.867188 3.140625 L 6.65625 3.515625 L 1.96875 11.695312 L 1.757812 12.070312 L 1.96875 12.445312 L 6.65625 20.625 L 6.867188 21 L 17.132812 21 L 17.34375 20.625 L 22.03125 12.445312 L 22.242188 12.070312 L 22.03125 11.695312 L 17.34375 3.515625 L 17.132812 3.140625 Z M 8.695312 4.640625 L 13.289062 4.640625 L 9.867188 5.859375 Z M 15.539062 4.640625 L 12.09375 8.15625 L 10.453125 6.445312 Z M 7.710938 4.710938 L 9.117188 6.140625 L 7.6875 6.65625 L 7.6875 4.757812 Z M 16.359375 4.851562 L 18.328125 8.25 L 15.304688 11.460938 L 12.632812 8.695312 Z M 6.9375 6.070312 L 6.9375 6.914062 L 6.328125 7.125 Z M 9.679688 6.726562 L 11.578125 8.695312 L 8.789062 11.53125 L 7.6875 10.359375 L 7.6875 7.453125 Z M 6.9375 7.710938 L 6.9375 9.5625 L 5.695312 8.226562 L 5.742188 8.132812 Z M 5.296875 8.90625 L 6.9375 10.664062 L 6.9375 13.453125 L 5.273438 15.164062 L 3.492188 12.070312 Z M 18.65625 9 L 17.625 13.851562 L 15.820312 12 Z M 12.09375 9.234375 L 14.789062 12 L 12 14.953125 L 9.304688 12.09375 Z M 19.242188 9.867188 L 20.507812 12.070312 L 18.796875 15.046875 L 18.28125 14.507812 Z M 7.6875 11.460938 L 8.273438 12.070312 L 7.6875 12.679688 Z M 15.304688 12.539062 L 17.460938 14.742188 L 17.203125 15.9375 L 12.914062 15.9375 L 12.515625 15.515625 Z M 8.789062 12.632812 L 11.484375 15.515625 L 11.0625 15.9375 L 7.6875 15.9375 L 7.6875 13.734375 Z M 6.9375 14.507812 L 6.9375 15.9375 L 5.71875 15.9375 L 5.648438 15.84375 Z M 18.09375 15.398438 L 18.398438 15.726562 L 18.28125 15.9375 L 17.976562 15.9375 Z M 6.140625 16.6875 L 6.9375 16.6875 L 6.9375 18.070312 Z M 7.6875 16.6875 L 10.359375 16.6875 L 7.734375 19.476562 L 7.6875 19.382812 Z M 11.390625 16.6875 L 12.585938 16.6875 L 15.210938 19.5 L 8.742188 19.5 Z M 13.617188 16.6875 L 17.039062 16.6875 L 16.570312 18.9375 L 16.242188 19.5 Z M 17.8125 16.6875 L 17.859375 16.6875 L 17.789062 16.804688 Z M 17.8125 16.6875 "/>
</g>
</svg>
