<?xml version="1.0" encoding="UTF-8"?>
<svg xmlns="http://www.w3.org/2000/svg" xmlns:xlink="http://www.w3.org/1999/xlink" viewBox="0 0 16 16" width="16px" height="16px">
<g id="surface64821664">
<path style=" stroke:none;fill-rule:nonzero;fill:rgb(95.686275%,36.078432%,1.176471%);fill-opacity:1;" d="M 8 1.332031 L 1.335938 5.734375 L 1.332031 10.265625 L 7.996094 14.667969 L 14.660156 10.265625 L 14.660156 5.734375 Z M 8 9.332031 L 6 8 L 8 6.667969 L 10 8 Z M 8.667969 5.507812 L 8.667969 3.371094 L 12.824219 6.117188 L 11.199219 7.199219 Z M 7.332031 5.507812 L 4.796875 7.199219 L 3.175781 6.117188 L 7.332031 3.371094 Z M 3.597656 8 L 2.667969 8.621094 L 2.667969 7.382812 Z M 4.796875 8.800781 L 7.332031 10.492188 L 7.332031 12.628906 L 3.175781 9.882812 Z M 8.667969 10.492188 L 11.199219 8.800781 L 12.820312 9.878906 L 8.664062 12.625 L 8.664062 10.492188 Z M 12.402344 8 L 13.328125 7.382812 L 13.324219 8.613281 Z M 12.402344 8 "/>
</g>
</svg>
